<?xml version="1.0" encoding="UTF-8"?>
<svg width="165px" height="143px" viewBox="0 0 165 143" version="1.1" xmlns="http://www.w3.org/2000/svg" xmlns:xlink="http://www.w3.org/1999/xlink">
    <!-- Generator: Sketch 52.5 (67469) - http://www.bohemiancoding.com/sketch -->
    <title>Group</title>
    <desc>Created with Sketch.</desc>
    <g id="Page-1" stroke="none" stroke-width="1" fill="none" fill-rule="evenodd">
        <g id="Desktop-HD" transform="translate(-223.000000, -96.000000)">
            <g id="Group" transform="translate(223.000000, 96.000000)">
                <path d="M106.71875,0.46875 C95.1875,0.46875 85.90625,9.84375 85.90625,21.28125 C85.90625,32.8125 95.28125,42.09375 106.71875,42.09375 C118.25,42.09375 127.53125,32.71875 127.53125,21.28125 C127.53125,9.84375 118.15625,0.46875 106.71875,0.46875 Z M116.375,21.28125 C116.375,22.59375 115.25,23.71875 113.9375,23.71875 L99.40625,23.71875 C98.09375,23.71875 96.96875,22.59375 96.96875,21.28125 C96.96875,19.96875 98.09375,18.84375 99.40625,18.84375 L113.9375,18.84375 C115.34375,18.9375 116.375,19.96875 116.375,21.28125 Z" id="Shape" fill="#424242" fill-rule="nonzero"></path>
                <path d="M106.71875,47.8125 C95.1875,47.8125 85.90625,57.1875 85.90625,68.625 C85.90625,80.0625 95.28125,89.4375 106.71875,89.4375 C118.25,89.4375 127.53125,80.0625 127.53125,68.625 C127.53125,57.1875 118.15625,47.8125 106.71875,47.8125 Z M116.375,73.5 C116.375,74.8125 115.25,75.9375 113.9375,75.9375 L99.40625,75.9375 C98.09375,75.9375 96.96875,74.8125 96.96875,73.5 C96.96875,72.1875 98.09375,71.0625 99.40625,71.0625 L113.9375,71.0625 C115.34375,71.0625 116.375,72.1875 116.375,73.5 Z M116.375,63.84375 C116.375,65.15625 115.25,66.28125 113.9375,66.28125 L99.40625,66.28125 C98.09375,66.28125 96.96875,65.15625 96.96875,63.84375 C96.96875,62.53125 98.09375,61.40625 99.40625,61.40625 L113.9375,61.40625 C115.34375,61.40625 116.375,62.53125 116.375,63.84375 Z" id="Shape" fill="#FF9100" fill-rule="nonzero"></path>
                <path d="M59.28125,0.46875 C47.75,0.46875 38.46875,9.84375 38.46875,21.28125 C38.46875,32.8125 47.84375,42.09375 59.28125,42.09375 C70.8125,42.09375 80.09375,32.71875 80.09375,21.28125 C80.1875,9.84375 70.8125,0.46875 59.28125,0.46875 Z M69.03125,21.28125 C69.03125,22.59375 67.90625,23.71875 66.59375,23.71875 L61.71875,23.71875 L61.71875,28.59375 C61.71875,29.90625 60.59375,31.03125 59.28125,31.03125 C57.96875,31.03125 56.84375,29.90625 56.84375,28.59375 L56.84375,23.71875 L51.96875,23.71875 C50.65625,23.71875 49.53125,22.59375 49.53125,21.28125 C49.53125,19.96875 50.65625,18.84375 51.96875,18.84375 L56.84375,18.84375 L56.84375,14.0625 C56.84375,12.75 57.96875,11.625 59.28125,11.625 C60.59375,11.625 61.71875,12.75 61.71875,14.0625 L61.71875,18.9375 L66.59375,18.9375 C67.90625,18.9375 69.03125,19.96875 69.03125,21.28125 Z" id="Shape" fill="#424242" fill-rule="nonzero"></path>
                <path d="M59.28125,47.8125 C47.75,47.8125 38.46875,57.1875 38.46875,68.625 C38.46875,80.0625 47.84375,89.4375 59.28125,89.4375 C70.8125,89.4375 80.09375,80.0625 80.09375,68.625 C80.09375,57.1875 70.8125,47.8125 59.28125,47.8125 Z M66.125,72.09375 C67.0625,73.03125 67.0625,74.53125 66.125,75.46875 C65.1875,76.40625 63.6875,76.40625 62.75,75.46875 L59.28125,72 L55.8125,75.46875 C54.875,76.40625 53.375,76.40625 52.4375,75.46875 C51.5,74.53125 51.5,73.03125 52.4375,72.09375 L55.90625,68.625 L52.4375,65.15625 C51.5,64.21875 51.5,62.71875 52.4375,61.78125 C53.375,60.84375 54.875,60.84375 55.8125,61.78125 L59.28125,65.25 L62.75,61.78125 C63.6875,60.84375 65.1875,60.84375 66.125,61.78125 C67.0625,62.71875 67.0625,64.21875 66.125,65.15625 L62.65625,68.625 L66.125,72.09375 Z" id="Shape" fill="#616161" fill-rule="nonzero"></path>
                <text id="calculator-keys" font-family="AlegreyaSansSC-Bold, Alegreya Sans SC" font-size="24" font-weight="bold" line-spacing="30">
                    <tspan x="0.224" y="142" fill="#424242">calculator</tspan>
                    <tspan x="116.12" y="142" fill="#616161"> </tspan>
                    <tspan x="119.744" y="142" fill="#FF9100">keys</tspan>
                </text>
            </g>
        </g>
    </g>
</svg>